<?xml version="1.0" encoding="utf-8"?>
<!-- Generator: Adobe Illustrator 24.3.0, SVG Export Plug-In . SVG Version: 6.00 Build 0)  -->
<svg version="1.1" id="Layer_1" xmlns="http://www.w3.org/2000/svg" xmlns:xlink="http://www.w3.org/1999/xlink" x="0px" y="0px"
	 viewBox="0 0 1038.07 1047.12" style="enable-background:new 0 0 1038.07 1047.12;" xml:space="preserve">
<style type="text/css">
	.st0{opacity:0.55;fill:url(#SVGID_1_);}
	.st1{opacity:0.55;fill:url(#SVGID_2_);}
	.st2{opacity:0.55;fill:url(#SVGID_3_);}
	.st3{opacity:0.55;fill:url(#SVGID_4_);}
	.st4{opacity:0.55;fill:url(#SVGID_5_);}
	.st5{opacity:0.55;fill:url(#SVGID_6_);}
	.st6{opacity:0.55;fill:url(#SVGID_7_);}
	.st7{opacity:0.55;fill:url(#SVGID_8_);}
	.st8{opacity:0.55;fill:url(#SVGID_9_);}
	.st9{opacity:0.55;fill:url(#SVGID_10_);}
	.st10{opacity:0.55;fill:url(#SVGID_11_);}
	.st11{opacity:0.55;fill:url(#SVGID_12_);}
	.st12{opacity:0.55;fill:url(#SVGID_13_);}
	.st13{opacity:0.55;fill:url(#SVGID_14_);}
	.st14{opacity:0.55;fill:url(#SVGID_15_);}
	.st15{opacity:0.55;fill:url(#SVGID_16_);}
	.st16{opacity:0.55;fill:url(#SVGID_17_);}
	.st17{opacity:0.55;fill:url(#SVGID_18_);}
	.st18{fill:url(#SVGID_19_);}
	.st19{fill:#FCCE0D;}
	.st20{fill:#E42327;}
	.st21{fill:#FFFFFF;}
	.st22{fill:none;}
	.st23{fill:#EAD7CC;}
	.st24{fill:url(#SVGID_20_);}
	.st25{fill:#24293B;}
	.st26{fill:#FFFFFF;stroke:#231F20;stroke-miterlimit:10;}
	.st27{fill:url(#SVGID_21_);}
	.st28{fill:url(#SVGID_22_);}
	.st29{fill:url(#SVGID_23_);}
	.st30{fill:url(#SVGID_24_);}
	.st31{fill:none;stroke:#E41170;stroke-width:3;stroke-linecap:round;stroke-miterlimit:10;}
	.st32{fill:none;stroke:#E41170;stroke-width:3;stroke-linecap:round;stroke-miterlimit:10;stroke-dasharray:6.9133,7.9009;}
	.st33{fill:none;stroke:#E41170;stroke-width:3;stroke-linecap:round;stroke-miterlimit:10;stroke-dasharray:5,8;}
	.st34{fill:#FCE481;}
	.st35{fill:#F37778;}
	.st36{fill:#30A1D6;}
	.st37{fill:#224694;}
	.st38{opacity:0.7;}
</style>
<g>
	<linearGradient id="SVGID_1_" gradientUnits="userSpaceOnUse" x1="705.8016" y1="583.225" x2="935.2032" y2="353.8234">
		<stop  offset="0" style="stop-color:#FAA51A"/>
		<stop  offset="1" style="stop-color:#FEE152"/>
	</linearGradient>
	<path class="st0" d="M759.65,435.43c0.58,2.27,9.32-17.38,15.22-31.07c16.73,0.22,35.25,1.45,55.72,3.88
		c-2.35,13.31-4.92,28.78-4.51,30.72c0.47,2.23,9.47-15.91,15.89-29.27c17.76,2.41,36.93,5.69,57.61,9.96
		c-5.43,10.54-10.67,21.09-10.83,22.79c-0.2,2.09,11.67-10.14,21.47-20.53c8.65,1.88,17.54,3.93,26.7,6.15
		c-5.61,8.04-10.42,15.22-10.75,16.63c-0.43,1.81,10.08-6.21,20.22-14.28c28.1,7.06,58.59,15.75,91.69,26.28l-420.85,37.95
		c0,0-4.68-87.83,145.73-90.26C761.12,417.81,759.16,433.5,759.65,435.43z"/>
	<linearGradient id="SVGID_2_" gradientUnits="userSpaceOnUse" x1="570.2938" y1="404.641" x2="859.9673" y2="114.9675">
		<stop  offset="0" style="stop-color:#C44298"/>
		<stop  offset="1" style="stop-color:#F59AA4"/>
	</linearGradient>
	<path class="st1" d="M901.18,156.18c0,0-26.98,1.09-65.06,7.91c-4.65,10.13-9.21,19.68-10.37,20.79c-1.15,1.1-0.13-8.33,1.35-19.1
		c-6.22,1.21-12.67,2.57-19.32,4.1c-3.6,10.63-7.18,20.7-8.23,21.93c-1.05,1.23-0.99-8.67-0.61-19.82
		c-17.1,4.23-35.18,9.57-53.27,16.31c-0.81,13.33-1.89,28.49-2.73,30.25c-0.85,1.79-4.39-12.94-7.36-26.34
		c-19.95,8.03-39.68,17.82-57.89,29.78c4.14,11.58,8.24,23.54,8.17,25.31c-0.07,1.9-8.39-9.14-16.14-19.86
		c-11.41,8.11-22.12,17.14-31.76,27.18c8.84,10.83,19.77,24.47,20.38,26.48c0.67,2.18-16.04-9.31-28.16-17.86
		c-33.46,39.4-50.97,93.21-34.62,166.68C598.43,415.02,719.12,252.02,901.18,156.18z"/>
	<linearGradient id="SVGID_3_" gradientUnits="userSpaceOnUse" x1="558.4462" y1="422.5569" x2="558.4462" y2="0">
		<stop  offset="3.757976e-04" style="stop-color:#65439A"/>
		<stop  offset="1" style="stop-color:#79479C"/>
	</linearGradient>
	<path class="st2" d="M565.73,275.38c-2.31-0.37,16.47-10.84,29.58-17.95c-1.72-16.64-4.61-34.98-8.87-55.15
		c-13.04,3.54-28.22,7.49-30.19,7.25c-2.26-0.27,15-10.86,27.73-18.46c-3.99-17.47-8.98-36.27-15.1-56.48
		c-10.01,6.35-20.05,12.53-21.72,12.84c-2.06,0.38,9.05-12.54,18.52-23.22c-2.65-8.44-5.49-17.12-8.53-26.04
		c-7.51,6.31-14.23,11.74-15.59,12.2c-1.76,0.59,5.28-10.59,12.41-21.42C544.41,61.6,533.03,32.02,519.56,0v422.56
		c0,0,87.89-3.23,76.8-153.25C583.15,272.33,567.7,275.7,565.73,275.38z"/>
	<linearGradient id="SVGID_4_" gradientUnits="userSpaceOnUse" x1="480.6759" y1="0" x2="480.6759" y2="422.5569">
		<stop  offset="3.757976e-04" style="stop-color:#AD7CB6"/>
		<stop  offset="1" style="stop-color:#79479C"/>
	</linearGradient>
	<path class="st3" d="M480,104.02c9.32,11.29,21.08,25.94,18.94,25.46c-1.74-0.39-12.36-7.52-22.54-14.54
		c-6.65,20.52-12.19,39.66-16.75,57.53c12.92,7.21,34.45,19.49,31.97,19.86c-2.2,0.32-21.11-4.18-34.99-7.61
		c-1.81,7.61-3.45,14.99-4.9,22.13c13.85,5.42,33.18,13.24,30.97,13.89c-2.01,0.59-19.3-1.01-33.19-2.43
		c-5.44,29.58-7.73,54.86-7.71,76.5c14.74,1.02,34.46,2.64,32.59,3.89c-1.74,1.16-18.69,4.82-32.35,7.63
		c4.74,113.55,77.53,116.23,77.53,116.23V0C503.59,37.99,490.54,72.55,480,104.02z"/>
	<linearGradient id="SVGID_5_" gradientUnits="userSpaceOnUse" x1="612.1597" y1="446.0768" x2="902.2659" y2="155.9706">
		<stop  offset="0" style="stop-color:#B03725"/>
		<stop  offset="1" style="stop-color:#EF59A0"/>
	</linearGradient>
	<path class="st4" d="M844.85,212.07c-1.9-0.84,14.2-5.15,27.96-8.61c17.84-28.19,28.37-47.29,28.37-47.29
		c-182.05,95.84-302.75,258.85-305.61,273.74c0.08,0.37,0.15,0.73,0.24,1.1c53.03,16.2,112.9-25.26,165.48-80.55
		c-10.16-8.29-21.3-17.59-22.22-19.26c-1.06-1.93,16.35,5.34,29.79,11.16c5.61-6.11,11.12-12.36,16.52-18.69
		c-8.63-4.87-16.19-9.33-17.11-10.46c-1.12-1.38,10.68,1.01,22.76,3.75c14.37-17.23,27.89-34.91,40.2-51.95
		c-11.25-2.78-22.19-5.66-23.54-6.63c-1.73-1.24,15.81-2.16,30.2-2.7c10.57-14.95,20.13-29.24,28.43-42.09
		C855.83,213.21,846.24,212.69,844.85,212.07z"/>
	<linearGradient id="SVGID_6_" gradientUnits="userSpaceOnUse" x1="617.2174" y1="509.1998" x2="1038.0663" y2="509.1998">
		<stop  offset="0" style="stop-color:#F15C22"/>
		<stop  offset="1" style="stop-color:#F5C026"/>
	</linearGradient>
	<path class="st5" d="M938.02,505.43c-12.08-8.27-27.73-18.66-27.06-16.57c0.55,1.69,8.6,11.63,16.5,21.14
		c-19.84,8.46-38.41,15.7-55.8,21.85c-8.35-12.22-22.51-32.56-22.65-30.06c-0.12,2.22,6.06,20.65,10.72,34.17
		c-7.42,2.49-14.62,4.78-21.6,6.87c-6.64-13.31-16.17-31.86-16.62-29.59c-0.41,2.05,2.74,19.14,5.4,32.84
		c-28.97,8.07-53.95,12.63-75.49,14.55c-2.34-14.59-5.72-34.09-6.8-32.11c-1,1.84-3.12,19.04-4.69,32.9
		c-113.52,5.48-122.72-66.78-122.72-66.78l420.85-37.95C1001.67,476.01,968.42,492.11,938.02,505.43z"/>
	<linearGradient id="SVGID_7_" gradientUnits="userSpaceOnUse" x1="554.78" y1="675.283" x2="906.7767" y2="675.283">
		<stop  offset="0" style="stop-color:#C7B12E"/>
		<stop  offset="1" style="stop-color:#FAF395"/>
	</linearGradient>
	<path class="st6" d="M906.78,795.76c0,0-9.03-25.44-26.83-59.79c-11.06-1.44-21.53-2.96-22.93-3.75
		c-1.39-0.77,7.92-2.59,18.65-4.37c-3-5.58-6.21-11.34-9.64-17.23c-11.21-0.29-21.9-0.73-23.39-1.36
		c-1.49-0.64,7.99-3.51,18.75-6.45c-9.11-15.08-19.57-30.77-31.36-46.05c-12.97,3.18-27.77,6.63-29.7,6.35
		c-1.96-0.28,11.06-8.03,22.98-14.83c-13.58-16.67-28.78-32.62-45.59-46.47c-9.83,7.38-20.04,14.84-21.75,15.3
		c-1.83,0.49,6.24-10.72,14.18-21.3c-11.13-8.5-22.92-16.05-35.37-22.28c-7.72,11.65-17.51,26.13-19.25,27.31
		c-1.88,1.28,4.14-18.08,8.71-32.18c-47.54-20.28-104.12-21.06-169.45,16.32C569.85,583.31,761.3,650.28,906.78,795.76z"/>
	<linearGradient id="SVGID_8_" gradientUnits="userSpaceOnUse" x1="580.0392" y1="559.2952" x2="861.6418" y2="840.8978">
		<stop  offset="3.760523e-04" style="stop-color:#A19E35"/>
		<stop  offset="1" style="stop-color:#F1E143"/>
	</linearGradient>
	<path class="st7" d="M836.7,758.53c0.24-2.06,9.13,12.03,16.51,24.15c32.21,8.68,53.57,13.09,53.57,13.09
		c-145.48-145.48-336.93-212.46-352-210.78c-0.33,0.19-0.65,0.36-0.98,0.55c0.24,55.45,57.58,100.34,125.97,134.18
		c4.9-12.16,10.49-25.56,11.81-26.93c1.53-1.58-0.25,17.19-1.83,31.76c7.5,3.54,15.1,6.95,22.74,10.24
		c2.1-9.68,4.11-18.23,4.92-19.44c0.99-1.48,2.2,10.5,3.16,22.85c20.71,8.62,41.6,16.29,61.53,23c-0.67-11.57-1.17-22.87-0.64-24.45
		c0.67-2.02,6.75,14.46,11.53,28.05c17.41,5.66,33.89,10.56,48.62,14.69C838.87,769.35,836.52,760.04,836.7,758.53z"/>
	<linearGradient id="SVGID_9_" gradientUnits="userSpaceOnUse" x1="527.9459" y1="856.0976" x2="726.6179" y2="856.0976">
		<stop  offset="0" style="stop-color:#4F8E40"/>
		<stop  offset="1" style="stop-color:#A6CE38"/>
	</linearGradient>
	<path class="st8" d="M726.62,1047.12c0,0-23.6-13.12-54.52-36.36c0.41-11.14,0.64-21.72,0.1-23.24c-0.53-1.49-3.87,7.38-7.4,17.66
		c-5.01-3.88-10.16-8-15.4-12.36c1.57-11.11,2.91-21.72,2.53-23.29c-0.38-1.57-4.79,7.3-9.47,17.42
		c-13.36-11.48-27.1-24.39-40.22-38.55c5.28-12.27,11.14-26.29,11.18-28.24c0.04-1.98-9.75,9.58-18.43,20.2
		c-14.19-16.15-27.4-33.78-38.28-52.66c8.91-8.47,17.96-17.31,18.69-18.92c0.79-1.72-11.61,4.38-23.35,10.46
		c-6.54-12.38-12.03-25.26-16.11-38.57c12.77-5.69,28.67-12.95,30.12-14.46c1.58-1.64-18.52,1.09-33.18,3.27
		c-12.13-50.25-3.53-106.17,44.15-164.41C572.88,679.66,607.24,879.56,726.62,1047.12z"/>
	<linearGradient id="SVGID_10_" gradientUnits="userSpaceOnUse" x1="576.7033" y1="855.6587" x2="726.6179" y2="855.6587">
		<stop  offset="0" style="stop-color:#78B042"/>
		<stop  offset="1" style="stop-color:#C9DC55"/>
	</linearGradient>
	<path class="st9" d="M701.5,971.84c-2.07-0.11,10.36,11,21.08,20.28c3.23,33.2,4.04,55,4.04,55
		C607.24,879.56,572.88,679.66,577.03,665.08c0.24-0.29,0.47-0.58,0.71-0.88c54.65,9.42,89.42,73.4,111.47,146.45
		c-12.8,2.82-26.94,6.11-28.51,7.19c-1.81,1.24,17,2.6,31.62,3.45c2.25,7.98,4.36,16.04,6.33,24.12c-9.9,0.47-18.66,1.04-19.98,1.63
		c-1.62,0.73,9.99,3.91,22.01,6.9c5.07,21.86,9.18,43.73,12.49,64.49c-11.3-2.58-22.36-4.94-24-4.68
		c-2.1,0.33,13.14,9.05,25.75,16.01c2.7,18.11,4.81,35.17,6.43,50.38C711.81,975.77,703.02,971.92,701.5,971.84z"/>
	<linearGradient id="SVGID_11_" gradientUnits="userSpaceOnUse" x1="137.8904" y1="293.0439" x2="449.6987" y2="293.0439">
		<stop  offset="3.761821e-04" style="stop-color:#585DAA"/>
		<stop  offset="1" style="stop-color:#494FA2"/>
	</linearGradient>
	<path class="st10" d="M137.89,156.18c0,0,26.98,1.09,65.06,7.91c4.65,10.13,9.21,19.68,10.37,20.79c1.15,1.1,0.13-8.33-1.35-19.1
		c6.22,1.21,12.67,2.57,19.32,4.1c3.6,10.63,7.18,20.7,8.23,21.93c1.05,1.23,0.99-8.67,0.61-19.82c17.1,4.23,35.18,9.57,53.27,16.31
		c0.81,13.33,1.89,28.49,2.73,30.25c0.85,1.79,4.39-12.94,7.36-26.34c19.95,8.03,39.68,17.82,57.89,29.78
		c-4.14,11.58-8.24,23.54-8.17,25.31c0.07,1.9,8.39-9.14,16.14-19.86c11.41,8.11,22.12,17.14,31.76,27.18
		c-8.84,10.83-19.77,24.47-20.38,26.48c-0.67,2.18,16.04-9.31,28.16-17.86c33.46,39.4,50.97,93.21,34.62,166.68
		C440.64,415.02,319.94,252.02,137.89,156.18z"/>
	<linearGradient id="SVGID_12_" gradientUnits="userSpaceOnUse" x1="443.5018" y1="295.3683" x2="137.8904" y2="295.3683">
		<stop  offset="3.761821e-04" style="stop-color:#4F54A4"/>
		<stop  offset="1" style="stop-color:#7679B9"/>
	</linearGradient>
	<path class="st11" d="M194.22,212.07c1.9-0.84-14.2-5.15-27.96-8.61c-17.84-28.19-28.37-47.29-28.37-47.29
		c182.05,95.84,302.75,258.85,305.61,273.74c-0.08,0.37-0.15,0.73-0.24,1.1c-53.03,16.2-112.9-25.26-165.48-80.55
		c10.16-8.29,21.3-17.59,22.22-19.26c1.06-1.93-16.35,5.34-29.79,11.16c-5.61-6.11-11.12-12.36-16.52-18.69
		c8.63-4.87,16.19-9.33,17.11-10.46c1.12-1.38-10.68,1.01-22.76,3.75c-14.37-17.23-27.89-34.91-40.2-51.95
		c11.25-2.78,22.19-5.66,23.54-6.63c1.73-1.24-15.81-2.16-30.2-2.7c-10.57-14.95-20.13-29.24-28.43-42.09
		C183.24,213.21,192.82,212.69,194.22,212.07z"/>
	<linearGradient id="SVGID_13_" gradientUnits="userSpaceOnUse" x1="0" y1="449.5031" x2="420.865" y2="449.5031">
		<stop  offset="3.761821e-04" style="stop-color:#72B3E2"/>
		<stop  offset="1" style="stop-color:#3C9BD6"/>
	</linearGradient>
	<path class="st12" d="M278.42,435.43c-0.58,2.27-9.32-17.38-15.22-31.07c-16.73,0.22-35.25,1.45-55.72,3.88
		c2.35,13.31,4.92,28.78,4.51,30.72c-0.47,2.23-9.47-15.91-15.89-29.27c-17.76,2.41-36.93,5.69-57.61,9.96
		c5.43,10.54,10.67,21.09,10.83,22.79c0.2,2.09-11.67-10.14-21.47-20.53c-8.65,1.88-17.54,3.93-26.7,6.15
		c5.61,8.04,10.42,15.22,10.75,16.63c0.43,1.81-10.08-6.21-20.22-14.28C63.59,437.47,33.1,446.15,0,456.69l420.85,37.95
		c0,0,4.68-87.83-145.73-90.26C276.94,417.81,278.91,433.5,278.42,435.43z"/>
	<linearGradient id="SVGID_14_" gradientUnits="userSpaceOnUse" x1="0" y1="509.1998" x2="420.8489" y2="509.1998">
		<stop  offset="3.761821e-04" style="stop-color:#3C9BD6"/>
		<stop  offset="1" style="stop-color:#5679BC"/>
	</linearGradient>
	<path class="st13" d="M100.04,505.43c12.08-8.27,27.73-18.66,27.06-16.57c-0.55,1.69-8.6,11.63-16.5,21.14
		c19.84,8.46,38.41,15.7,55.8,21.85c8.35-12.22,22.51-32.56,22.65-30.06c0.12,2.22-6.06,20.65-10.72,34.17
		c7.42,2.49,14.62,4.78,21.6,6.87c6.64-13.31,16.17-31.86,16.62-29.59c0.41,2.05-2.74,19.14-5.4,32.84
		c28.97,8.07,53.95,12.63,75.49,14.55c2.34-14.59,5.73-34.09,6.8-32.11c1,1.84,3.12,19.04,4.69,32.9
		c113.52,5.48,122.72-66.78,122.72-66.78L0,456.69C36.4,476.01,69.65,492.11,100.04,505.43z"/>
	<linearGradient id="SVGID_15_" gradientUnits="userSpaceOnUse" x1="307.288" y1="554.8032" x2="307.288" y2="795.7629">
		<stop  offset="3.761821e-04" style="stop-color:#32A5D2"/>
		<stop  offset="1" style="stop-color:#84D1DB"/>
	</linearGradient>
	<path class="st14" d="M131.29,795.76c0,0,9.03-25.44,26.83-59.79c11.06-1.44,21.53-2.96,22.93-3.75c1.39-0.77-7.92-2.59-18.65-4.37
		c3-5.58,6.21-11.34,9.64-17.23c11.21-0.29,21.9-0.73,23.39-1.36c1.49-0.64-7.99-3.51-18.75-6.45
		c9.11-15.08,19.57-30.77,31.36-46.05c12.97,3.18,27.77,6.63,29.7,6.35c1.96-0.28-11.06-8.03-22.98-14.83
		c13.58-16.67,28.78-32.62,45.59-46.47c9.83,7.38,20.04,14.84,21.75,15.3c1.83,0.49-6.24-10.72-14.18-21.3
		c11.13-8.5,22.92-16.05,35.37-22.28c7.72,11.65,17.51,26.13,19.25,27.31c1.88,1.28-4.14-18.08-8.71-32.18
		c47.54-20.28,104.12-21.06,169.45,16.32C468.22,583.31,276.77,650.28,131.29,795.76z"/>
	<linearGradient id="SVGID_16_" gradientUnits="userSpaceOnUse" x1="484.2694" y1="690.358" x2="131.2896" y2="690.358">
		<stop  offset="3.761821e-04" style="stop-color:#1D8EB0"/>
		<stop  offset="1" style="stop-color:#4AC2C3"/>
	</linearGradient>
	<path class="st15" d="M201.37,758.53c-0.24-2.06-9.13,12.03-16.51,24.15c-32.21,8.68-53.57,13.09-53.57,13.09
		c145.48-145.48,336.93-212.46,352-210.78c0.33,0.19,0.65,0.36,0.98,0.55c-0.24,55.45-57.58,100.34-125.97,134.18
		c-4.9-12.16-10.49-25.56-11.81-26.93c-1.53-1.58,0.25,17.19,1.83,31.76c-7.5,3.54-15.1,6.95-22.74,10.24
		c-2.1-9.68-4.11-18.23-4.92-19.44c-0.99-1.48-2.2,10.5-3.16,22.85c-20.71,8.62-41.6,16.29-61.53,23
		c0.67-11.57,1.17-22.87,0.64-24.45c-0.67-2.02-6.75,14.46-11.53,28.05c-17.41,5.66-33.89,10.56-48.62,14.69
		C199.2,769.35,201.54,760.04,201.37,758.53z"/>
	<linearGradient id="SVGID_17_" gradientUnits="userSpaceOnUse" x1="410.7845" y1="665.0783" x2="410.7845" y2="1047.1168">
		<stop  offset="0" style="stop-color:#50876A"/>
		<stop  offset="1" style="stop-color:#60BE76"/>
	</linearGradient>
	<path class="st16" d="M311.45,1047.12c0,0,23.6-13.12,54.52-36.36c-0.41-11.14-0.64-21.72-0.1-23.24c0.53-1.49,3.87,7.38,7.4,17.66
		c5.01-3.88,10.16-8,15.4-12.36c-1.57-11.11-2.91-21.72-2.53-23.29c0.38-1.57,4.79,7.3,9.47,17.42
		c13.36-11.48,27.1-24.39,40.22-38.55c-5.28-12.27-11.14-26.29-11.18-28.24c-0.04-1.98,9.75,9.58,18.43,20.2
		c14.19-16.15,27.4-33.78,38.28-52.66c-8.91-8.47-17.96-17.31-18.69-18.92c-0.79-1.72,11.61,4.38,23.35,10.46
		c6.54-12.38,12.03-25.26,16.11-38.57c-12.77-5.69-28.67-12.95-30.12-14.46c-1.58-1.64,18.52,1.09,33.18,3.27
		c12.13-50.25,3.53-106.17-44.15-164.41C465.18,679.66,430.83,879.56,311.45,1047.12z"/>
	<linearGradient id="SVGID_18_" gradientUnits="userSpaceOnUse" x1="386.4057" y1="664.2004" x2="386.4057" y2="1047.1168">
		<stop  offset="0" style="stop-color:#5C9460"/>
		<stop  offset="1" style="stop-color:#86CA94"/>
	</linearGradient>
	<path class="st17" d="M336.57,971.84c2.07-0.11-10.36,11-21.08,20.28c-3.23,33.2-4.04,55-4.04,55
		c119.38-167.56,153.73-367.45,149.59-382.04c-0.24-0.29-0.47-0.58-0.71-0.88c-54.65,9.42-89.42,73.4-111.47,146.45
		c12.8,2.82,26.94,6.11,28.51,7.19c1.81,1.24-17,2.6-31.62,3.45c-2.25,7.98-4.36,16.04-6.33,24.12c9.9,0.47,18.66,1.04,19.98,1.63
		c1.62,0.73-9.99,3.91-22.01,6.9c-5.07,21.86-9.18,43.73-12.49,64.49c11.3-2.58,22.36-4.94,24-4.68c2.1,0.33-13.14,9.05-25.75,16.01
		c-2.7,18.11-4.81,35.17-6.43,50.38C326.25,975.77,335.05,971.92,336.57,971.84z"/>
	<linearGradient id="SVGID_19_" gradientUnits="userSpaceOnUse" x1="432.2654" y1="457.0135" x2="432.2654" y2="719.8808">
		<stop  offset="0" style="stop-color:#32A3D7"/>
		<stop  offset="1" style="stop-color:#214391"/>
	</linearGradient>
	<path class="st18" d="M470.39,662.15c-5.43-10.18-5.04-21.08-32.23-29.86c-14.58-4.7-40.7-14.73-40.7-14.73l0,0
		c-16.41-40.3-32.78-64.52-37.07-99.91c-2.41-19.9-2.09-40.51,1.73-60.64c0.48,0.04,143.56,11.81,143.56,149.39
		c0,63.84-47.4,92.41-82.95,113.47c-0.8-12.88,0.01-22.7-9.58-56.68c-1.9-6.72-3.85-13.05-5.85-19.04l0,0
		C449.02,647.9,470.39,662.15,470.39,662.15z"/>
	<path class="st19" d="M397.45,617.56c0,0,26.13,10.03,40.7,14.73c27.2,8.78,26.81,19.68,32.23,29.86c0,0-21.38-14.25-63.09-17.99
		l0,0C404.08,634.49,400.77,625.7,397.45,617.56L397.45,617.56z"/>
	<g>
		<path class="st20" d="M395.52,595.45c-23.18-23.62-33.11-59.44-31.58-82.31c32.82,3.04,56.44,11.41,79.62,35.03
			c23.18,23.62,35.15,52.3,33.62,75.16C452.3,623.47,418.7,619.07,395.52,595.45z"/>
	</g>
	<g>
		<path class="st21" d="M401.75,588.83c-18.72-19.07-27.73-47.03-27.43-64.57c25.33,3.61,43.8,10.96,62.52,30.03
			c18.72,19.07,29.02,41.61,28.72,59.15C446.45,612.58,420.47,607.9,401.75,588.83z"/>
	</g>
	<path class="st22" d="M363.8,402.6c0.16-0.05,11.09-4.16,21.09-10.82C375.54,398.73,363.98,402.54,363.8,402.6z"/>
	<path class="st20" d="M315.97,241.07c65.45,30.76,86.1,111.75,85.2,129.84c-0.41,8.14-8.03,15.37-16.28,20.87
		c-10,6.66-20.93,10.76-21.09,10.82c-3.85-3.33-7.39-6.98-10.66-10.89c9.04-3.73,30.4-13.87,31.07-26.47
		c0.79-14.95-16.08-78.46-68.38-108.92C315.77,250.63,315.84,245.49,315.97,241.07z"/>
	<path class="st19" d="M384.21,365.24c-0.67,12.6-22.02,22.74-31.07,26.47c-31.08-37.17-36.94-98.07-37.31-135.39
		C368.13,286.78,385,350.28,384.21,365.24z"/>
	<path class="st23" d="M315.97,241.07c0.31-10.67,0.95-17.19,0.95-17.19c68.76,21.45,97.68,86.83,109.83,136.94
		c15.18-7.16,32.34-11.32,47.73-13.74l0,0c0,0-40.06,33.79-56.8,87.47c0,0,64.46,15.46,101.72,87.36v319.36
		c-4.74,0-9.31-0.27-13.73-0.77c0-55.52-83.13-103.64-83.13-103.64c0.36-5.29,0.59-10.49,0.18-16.98
		c35.55-21.06,82.95-49.64,82.95-113.47c0-137.59-143.08-149.35-143.56-149.39c2.92-15.38,7.89-30.48,15.27-44.78
		c-4.91-2.79-9.42-6.03-13.59-9.64c0.18-0.06,11.73-3.87,21.09-10.82c8.25-5.49,15.87-12.73,16.28-20.87
		C402.08,352.82,381.42,271.83,315.97,241.07z"/>
	<linearGradient id="SVGID_20_" gradientUnits="userSpaceOnUse" x1="463.5926" y1="840.5045" x2="463.5926" y2="736.8598">
		<stop  offset="0" style="stop-color:#32A3D7"/>
		<stop  offset="1" style="stop-color:#214391"/>
	</linearGradient>
	<path class="st24" d="M422.54,736.86c-0.43,6.24-1.04,20.77-1.04,29.56c0,25.44,29.59,67.88,84.17,74.09
		C505.68,754.88,422.55,736.86,422.54,736.86z"/>
	<path class="st19" d="M479.94,567.49c0,0-14.48-79.56-120.14-92.29c-26.37-3.18-30.67-7.1-30.67-7.1s0,28.14,29.38,28.14
		C444.6,496.24,479.94,567.49,479.94,567.49z"/>
	<g>
		<path class="st20" d="M440.96,794.68c-7-12.46-10.49-27.62-7.97-36.58c12.47,5.46,23.57,11.37,30.57,23.83
			c7,12.46,9.24,25.51,6.72,34.48C460.62,813.25,447.96,807.14,440.96,794.68z"/>
	</g>
	<circle class="st20" cx="418.59" cy="570.2" r="27.12"/>
	<circle class="st25" cx="418.59" cy="570.2" r="17.38"/>
	<circle class="st26" cx="422.79" cy="567.49" r="8.08"/>
	<linearGradient id="SVGID_21_" gradientUnits="userSpaceOnUse" x1="606.7083" y1="457.0135" x2="606.7083" y2="719.8808">
		<stop  offset="0" style="stop-color:#32A3D7"/>
		<stop  offset="1" style="stop-color:#214391"/>
	</linearGradient>
	<path class="st27" d="M568.58,662.15c5.43-10.18,5.04-21.08,32.23-29.86c14.58-4.7,40.7-14.73,40.7-14.73l0,0
		c16.41-40.3,32.78-64.52,37.07-99.91c2.41-19.9,2.09-40.51-1.73-60.64c-0.48,0.04-143.56,11.81-143.56,149.39
		c0,63.84,47.4,92.41,82.95,113.47c0.8-12.88-0.01-22.7,9.58-56.68c1.9-6.72,3.85-13.05,5.85-19.04l0,0
		C589.96,647.9,568.58,662.15,568.58,662.15z"/>
	<path class="st19" d="M641.52,617.56c0,0-26.13,10.03-40.7,14.73c-27.2,8.78-26.81,19.68-32.23,29.86c0,0,21.38-14.25,63.09-17.99
		l0,0C634.89,634.49,638.21,625.7,641.52,617.56L641.52,617.56z"/>
	<g>
		<path class="st20" d="M643.46,595.45c23.18-23.62,33.11-59.44,31.58-82.31c-32.82,3.04-56.44,11.41-79.62,35.03
			c-23.18,23.62-35.15,52.3-33.62,75.16C586.68,623.47,620.28,619.07,643.46,595.45z"/>
	</g>
	<g>
		<path class="st21" d="M637.23,588.83c18.72-19.07,27.73-47.03,27.43-64.57c-25.33,3.61-43.8,10.96-62.52,30.03
			c-18.72,19.07-29.02,41.61-28.72,59.15C592.53,612.58,618.51,607.9,637.23,588.83z"/>
	</g>
	<path class="st22" d="M675.17,402.6c-0.16-0.05-11.09-4.16-21.09-10.82C663.44,398.73,674.99,402.54,675.17,402.6z"/>
	<path class="st20" d="M723,241.07c-65.45,30.76-86.1,111.75-85.2,129.84c0.41,8.14,8.03,15.37,16.28,20.87
		c10,6.66,20.93,10.76,21.09,10.82c3.85-3.33,7.39-6.98,10.66-10.89c-9.04-3.73-30.4-13.87-31.07-26.47
		c-0.79-14.95,16.08-78.46,68.38-108.92C723.2,250.63,723.13,245.49,723,241.07z"/>
	<path class="st19" d="M654.76,365.24c0.67,12.6,22.02,22.74,31.07,26.47c31.08-37.17,36.94-98.07,37.31-135.39
		C670.84,286.78,653.97,350.28,654.76,365.24z"/>
	<path class="st23" d="M723,241.07c-0.31-10.67-0.95-17.19-0.95-17.19c-68.76,21.45-97.68,86.83-109.83,136.94
		c-15.18-7.16-32.34-11.32-47.73-13.74l0,0c0,0,40.06,33.79,56.8,87.47c0,0-64.46,15.46-101.72,87.36v319.36
		c4.74,0,9.31-0.27,13.73-0.77c0-55.52,83.13-103.64,83.13-103.64c-0.36-5.29-0.59-10.49-0.18-16.98
		c-35.55-21.06-82.95-49.64-82.95-113.47c0-137.59,143.08-149.35,143.56-149.39c-2.92-15.38-7.89-30.48-15.27-44.78
		c4.91-2.79,9.42-6.03,13.59-9.64c-0.18-0.06-11.73-3.87-21.09-10.82c-8.25-5.49-15.87-12.73-16.28-20.87
		C636.9,352.82,657.55,271.83,723,241.07z"/>
	<g>
		<linearGradient id="SVGID_22_" gradientUnits="userSpaceOnUse" x1="468.5476" y1="521.9124" x2="468.5476" y2="343.7869">
			<stop  offset="0" style="stop-color:#E41E26"/>
			<stop  offset="1" style="stop-color:#F68B41"/>
		</linearGradient>
		<path class="st28" d="M474.49,347.07L474.49,347.07c0,0-40.06,33.79-56.8,87.47c0,0,64.46,15.46,101.72,87.36V343.83
			C519.41,343.83,499.23,343.19,474.49,347.07z"/>
		<linearGradient id="SVGID_23_" gradientUnits="userSpaceOnUse" x1="570.4261" y1="521.9124" x2="570.4261" y2="343.7869">
			<stop  offset="0" style="stop-color:#E41E26"/>
			<stop  offset="1" style="stop-color:#F68B41"/>
		</linearGradient>
		<path class="st29" d="M564.49,347.08L564.49,347.08c-24.75-3.89-44.92-3.25-44.92-3.25v178.09
			c37.26-71.9,101.72-87.36,101.72-87.36C604.55,380.87,564.49,347.08,564.49,347.08z"/>
	</g>
	<linearGradient id="SVGID_24_" gradientUnits="userSpaceOnUse" x1="575.3812" y1="840.5045" x2="575.3812" y2="736.8598">
		<stop  offset="0" style="stop-color:#32A3D7"/>
		<stop  offset="1" style="stop-color:#214391"/>
	</linearGradient>
	<path class="st30" d="M616.43,736.86c0.43,6.24,1.04,20.77,1.04,29.56c0,25.44-29.59,67.88-84.17,74.09
		C533.29,754.88,616.43,736.86,616.43,736.86z"/>
	<path class="st19" d="M559.03,567.49c0,0,14.48-79.56,120.14-92.29c26.37-3.18,30.67-7.1,30.67-7.1s0,28.14-29.38,28.14
		C594.37,496.24,559.03,567.49,559.03,567.49z"/>
	<g>
		<path class="st20" d="M598.02,794.68c7-12.46,10.49-27.62,7.97-36.58c-12.47,5.46-23.57,11.37-30.57,23.83s-9.24,25.51-6.72,34.48
			C578.35,813.25,591.01,807.14,598.02,794.68z"/>
	</g>
	<circle class="st20" cx="620.39" cy="570.2" r="27.12"/>
	<circle class="st25" cx="620.39" cy="570.2" r="17.38"/>
	<circle class="st26" cx="616.18" cy="567.49" r="8.08"/>
	<g>
		<circle class="st21" cx="519.25" cy="556.94" r="5.29"/>
		<circle class="st21" cx="519.25" cy="536.72" r="5.29"/>
		<circle class="st21" cx="519.25" cy="577.15" r="5.29"/>
		<circle class="st21" cx="519.25" cy="597.37" r="5.29"/>
		<circle class="st21" cx="519.56" cy="617.59" r="5.29"/>
		<circle class="st21" cx="519.56" cy="637.81" r="5.29"/>
		<circle class="st21" cx="519.56" cy="658.02" r="5.29"/>
		<circle class="st21" cx="519.56" cy="787.3" r="5.29"/>
		<circle class="st21" cx="519.56" cy="807.52" r="5.29"/>
		<circle class="st21" cx="519.56" cy="827.74" r="5.29"/>
	</g>
	<g>
		<g>
			<circle class="st21" cx="476.55" cy="726.93" r="5.29"/>
			<circle class="st21" cx="456.33" cy="726.93" r="5.29"/>
			<circle class="st21" cx="436.11" cy="726.93" r="5.29"/>
		</g>
		<g>
			<circle class="st21" cx="603.11" cy="726.93" r="5.29"/>
			<circle class="st21" cx="582.89" cy="726.93" r="5.29"/>
			<circle class="st21" cx="562.68" cy="726.93" r="5.29"/>
		</g>
	</g>
	<g>
		<g>
			<g>
				<path class="st31" d="M577.88,536.72c0,0,0.67-1.04,2.07-2.82"/>
				<path class="st32" d="M585.09,527.91c13.31-14.25,45.73-40.99,103.03-43.15"/>
				<path class="st31" d="M692.08,484.65c1.16-0.02,2.32-0.03,3.5-0.03"/>
			</g>
		</g>
		<g>
			<g>
				<path class="st31" d="M461.35,536.72c0,0-0.67-1.04-2.07-2.82"/>
				<path class="st32" d="M454.13,527.91c-13.31-14.25-45.73-40.99-103.03-43.15"/>
				<path class="st31" d="M347.15,484.65c-1.16-0.02-2.32-0.03-3.5-0.03"/>
			</g>
		</g>
	</g>
	<g>
		<path class="st33" d="M582.39,648.38c0,0,32.24-13.62,46.84-13.62"/>
		<path class="st33" d="M456.84,648.38c0,0-32.24-13.62-46.84-13.62"/>
	</g>
	<g>
		<polygon class="st34" points="519.42,744.41 519.42,668.78 487.54,724.11 		"/>
		<polygon class="st35" points="519.42,668.78 551.29,724.11 519.42,744.41 		"/>
		<polyline class="st36" points="487.54,730.67 519.42,750.97 519.42,777.23 		"/>
		<polyline class="st37" points="551.29,730.67 519.42,750.97 519.42,777.23 		"/>
		<polygon class="st19" points="519.42,706 487.54,724.11 519.42,744.41 		"/>
		<polygon class="st20" points="519.42,706 551.29,724.11 519.42,744.41 		"/>
	</g>
	<g class="st38">
		<g>
			<polygon class="st21" points="519.61,545.09 523.39,436.28 515.83,436.28 			"/>
			<polygon class="st21" points="519.61,260.12 515.83,368.92 523.39,368.92 			"/>
		</g>
		<g>
			<polygon class="st21" points="377.13,402.6 485.93,406.38 485.93,398.82 			"/>
			<polygon class="st21" points="662.1,402.6 553.29,398.82 553.29,406.38 			"/>
		</g>
		<g>
			<polygon class="st21" points="418.86,503.35 498.47,429.09 493.12,423.74 			"/>
			<polygon class="st21" points="620.36,301.85 540.76,376.11 546.1,381.46 			"/>
		</g>
		<g>
			<polygon class="st21" points="418.86,301.85 493.12,381.46 498.47,376.11 			"/>
			<polygon class="st21" points="620.36,503.35 546.1,423.74 540.76,429.09 			"/>
		</g>
		<g>
			<polygon class="st21" points="574.14,534.24 535.99,432.27 529.01,435.17 			"/>
			<polygon class="st21" points="465.09,270.96 503.23,372.93 510.21,370.04 			"/>
		</g>
		<g>
			<polygon class="st21" points="387.97,457.13 489.94,418.98 487.05,412 			"/>
			<polygon class="st21" points="651.25,348.07 549.28,386.22 552.18,393.2 			"/>
		</g>
		<g>
			<polygon class="st21" points="465.09,534.24 510.21,435.17 503.23,432.27 			"/>
			<polygon class="st21" points="574.14,270.96 529.01,370.04 535.99,372.93 			"/>
		</g>
		<g>
			<polygon class="st21" points="387.97,348.07 487.05,393.2 489.94,386.22 			"/>
			<polygon class="st21" points="651.25,457.13 552.18,412 549.28,418.98 			"/>
		</g>
		<g>
			<polygon class="st21" points="547.41,542.35 529.89,434.9 522.48,436.37 			"/>
			<polygon class="st21" points="491.81,262.85 509.33,370.3 516.75,368.83 			"/>
		</g>
		<g>
			<polygon class="st21" points="379.86,430.4 487.31,412.88 485.84,405.46 			"/>
			<polygon class="st21" points="659.36,374.8 551.91,392.32 553.38,399.74 			"/>
		</g>
		<g>
			<polygon class="st21" points="440.45,521.07 504.04,432.71 497.76,428.51 			"/>
			<polygon class="st21" points="598.77,284.13 535.18,372.49 541.47,376.69 			"/>
		</g>
		<g>
			<polygon class="st21" points="401.14,323.44 489.51,387.03 493.71,380.74 			"/>
			<polygon class="st21" points="638.08,481.76 549.72,418.17 545.52,424.46 			"/>
		</g>
		<g>
			<polygon class="st21" points="598.77,521.07 541.47,428.51 535.18,432.71 			"/>
			<polygon class="st21" points="440.45,284.13 497.76,376.69 504.04,372.49 			"/>
		</g>
		<g>
			<polygon class="st21" points="401.14,481.76 493.71,424.46 489.51,418.17 			"/>
			<polygon class="st21" points="638.08,323.44 545.52,380.74 549.72,387.03 			"/>
		</g>
		<g>
			<polygon class="st21" points="491.81,542.35 516.75,436.37 509.33,434.9 			"/>
			<polygon class="st21" points="547.41,262.85 522.48,368.83 529.89,370.3 			"/>
		</g>
		<g>
			<polygon class="st21" points="379.86,374.8 485.84,399.74 487.31,392.32 			"/>
			<polygon class="st21" points="659.36,430.4 553.38,405.46 551.91,412.88 			"/>
		</g>
	</g>
	<polygon class="st21" points="519.6,183.36 476.3,416.53 519.6,452.06 562.9,416.53 	"/>
</g>
</svg>
