<?xml version="1.0" encoding="utf-8"?>
<!-- Generator: Adobe Illustrator 24.3.0, SVG Export Plug-In . SVG Version: 6.00 Build 0)  -->
<svg version="1.1" id="Layer_1" xmlns="http://www.w3.org/2000/svg" xmlns:xlink="http://www.w3.org/1999/xlink" x="0px" y="0px"
	 viewBox="0 0 669.59 426.69" style="enable-background:new 0 0 669.59 426.69;" xml:space="preserve">
<style type="text/css">
	.st0{fill:#30354B;}
	.st1{fill:#1D63AE;}
	.st2{opacity:0.75;fill:#214391;}
	.st3{fill:none;}
	.st4{fill:#32A3D7;}
	.st5{fill:#24293B;}
	.st6{fill:#214391;}
	.st7{fill:#0375A3;}
	.st8{fill:#E42327;}
	.st9{fill:#80151C;}
	.st10{fill:#FCCE0D;}
	.st11{fill:#F2B425;}
	.st12{fill:#F9EF60;}
	.st13{fill:#ECE11A;}
	.st14{opacity:0.75;fill:#FFFFFF;}
</style>
<g>
	<g>
		<g>
			<path class="st0" d="M256.5,418.77c0-4.58,3.5-7.92,8.21-7.92c2.39,0,4.47,0.82,5.88,2.41l-1.44,1.39
				c-1.2-1.26-2.66-1.84-4.36-1.84c-3.5,0-6.08,2.52-6.08,5.95c0,3.43,2.59,5.95,6.08,5.95c1.7,0,3.16-0.6,4.36-1.86l1.44,1.39
				c-1.42,1.59-3.5,2.43-5.91,2.43C260,426.69,256.5,423.35,256.5,418.77z"/>
			<path class="st0" d="M276.6,418.77c0-4.54,3.5-7.92,8.25-7.92c4.71,0,8.21,3.36,8.21,7.92c0,4.56-3.5,7.92-8.21,7.92
				C280.09,426.69,276.6,423.31,276.6,418.77z M290.84,418.77c0-3.43-2.57-5.95-6-5.95c-3.47,0-6.04,2.52-6.04,5.95
				c0,3.43,2.57,5.95,6.04,5.95C288.28,424.72,290.84,422.2,290.84,418.77z"/>
			<path class="st0" d="M300.87,411.03h2.21v13.56h8.39v1.92h-10.6V411.03z"/>
			<path class="st0" d="M316.9,418.77c0-4.54,3.5-7.92,8.25-7.92c4.71,0,8.21,3.36,8.21,7.92c0,4.56-3.5,7.92-8.21,7.92
				C320.39,426.69,316.9,423.31,316.9,418.77z M331.14,418.77c0-3.43-2.57-5.95-6-5.95c-3.47,0-6.04,2.52-6.04,5.95
				c0,3.43,2.57,5.95,6.04,5.95C328.58,424.72,331.14,422.2,331.14,418.77z"/>
			<path class="st0" d="M355.53,426.52l-0.02-11.28l-5.6,9.4h-1.02l-5.6-9.34v11.22h-2.12v-15.49h1.81l6.46,10.89l6.37-10.89h1.81
				l0.02,15.49H355.53z"/>
			<path class="st0" d="M380.05,422.34c0,2.65-2.01,4.18-5.93,4.18h-7.39v-15.49h6.95c3.56,0,5.55,1.5,5.55,4
				c0,1.68-0.86,2.85-2.08,3.45C378.9,418.97,380.05,420.28,380.05,422.34z M368.94,412.82v4.96h4.54c2.26,0,3.54-0.84,3.54-2.48
				c0-1.64-1.28-2.48-3.54-2.48H368.94z M377.82,422.16c0-1.79-1.33-2.59-3.78-2.59h-5.09v5.16h5.09
				C376.49,424.72,377.82,423.95,377.82,422.16z"/>
			<path class="st0" d="M387.91,411.03h2.21v15.49h-2.21V411.03z"/>
			<path class="st0" d="M409.06,422.64h-8.23l-1.7,3.87h-2.28l7.01-15.49h2.19l7.04,15.49h-2.32L409.06,422.64z M408.29,420.87
				l-3.34-7.59l-3.34,7.59H408.29z"/>
		</g>
	</g>
	<g>
		<g>
			<g>
				<path class="st0" d="M144.14,354.9h10.09c7.7,0,12.93,4.86,12.93,11.97c0,7.12-5.23,11.97-12.93,11.97h-10.09V354.9z
					 M154.03,375.87c5.92,0,9.72-3.63,9.72-9s-3.8-9-9.72-9h-6.47v17.99H154.03z"/>
				<path class="st0" d="M196.62,375.87v2.98h-17.38V354.9h16.9v2.98h-13.48v7.36h12.01v2.91h-12.01v7.73H196.62z"/>
				<path class="st0" d="M229.47,354.9l-10.5,23.95h-3.39l-10.54-23.95h3.69l8.62,19.67l8.69-19.67H229.47z"/>
				<path class="st0" d="M237.17,366.87c0-7.08,5.41-12.25,12.69-12.25c3.69,0,6.91,1.27,9.1,3.73l-2.22,2.16
					c-1.85-1.95-4.1-2.84-6.74-2.84c-5.41,0-9.41,3.9-9.41,9.2s4,9.2,9.41,9.2c2.63,0,4.89-0.92,6.74-2.87l2.22,2.16
					c-2.19,2.46-5.41,3.76-9.13,3.76C242.57,379.12,237.17,373.96,237.17,366.87z"/>
				<path class="st0" d="M268.24,366.87c0-7.01,5.41-12.25,12.76-12.25c7.29,0,12.69,5.2,12.69,12.25s-5.41,12.25-12.69,12.25
					C273.64,379.12,268.24,373.89,268.24,366.87z M290.27,366.87c0-5.3-3.97-9.2-9.27-9.2c-5.37,0-9.34,3.9-9.34,9.2
					s3.97,9.2,9.34,9.2C286.3,376.08,290.27,372.18,290.27,366.87z"/>
				<path class="st0" d="M326.36,354.9v23.95h-2.8l-14.37-17.86v17.86h-3.42V354.9h2.81l14.37,17.86V354.9H326.36z"/>
			</g>
		</g>
		<g>
			<path class="st0" d="M368.89,372.24c0,4.18-3.53,6.61-10.13,6.61h-13.48v-23.96h12.8c6.61,0,9.69,2.64,9.69,6.26
				c0,2.22-1.13,4.07-3.32,5.17C367.24,367.35,368.89,369.4,368.89,372.24z M353.21,360.54v3.56h3.76c1.81,0,2.63-0.62,2.63-1.78
				c0-1.16-0.82-1.78-2.63-1.78H353.21z M360.74,371.32c0-1.23-0.89-1.88-2.67-1.88h-4.86v3.76h4.86
				C359.85,373.2,360.74,372.55,360.74,371.32z"/>
			<path class="st0" d="M376.92,366.87c0-7.26,5.72-12.53,13.52-12.53s13.52,5.27,13.52,12.53s-5.71,12.53-13.52,12.53
				S376.92,374.13,376.92,366.87z M395.82,366.87c0-3.73-2.4-5.99-5.37-5.99s-5.37,2.26-5.37,5.99c0,3.73,2.4,5.99,5.37,5.99
				S395.82,370.6,395.82,366.87z"/>
			<path class="st0" d="M428.91,366.22h7.02v10.13c-2.91,1.98-6.91,3.05-10.44,3.05c-7.74,0-13.38-5.17-13.38-12.53
				s5.65-12.53,13.55-12.53c4.72,0,8.52,1.64,10.95,4.62l-5.17,4.55c-1.51-1.75-3.25-2.64-5.37-2.64c-3.56,0-5.82,2.29-5.82,5.99
				c0,3.59,2.26,5.99,5.71,5.99c0.99,0,1.95-0.17,2.94-0.58V366.22z"/>
			<path class="st0" d="M444.58,366.87c0-7.26,5.72-12.53,13.52-12.53s13.52,5.27,13.52,12.53s-5.71,12.53-13.52,12.53
				S444.58,374.13,444.58,366.87z M463.47,366.87c0-3.73-2.4-5.99-5.37-5.99s-5.37,2.26-5.37,5.99c0,3.73,2.4,5.99,5.37,5.99
				S463.47,370.6,463.47,366.87z"/>
			<path class="st0" d="M485.58,361.15h-7.02v-6.26h22.11v6.26h-7.02v17.69h-8.08V361.15z"/>
			<path class="st0" d="M524.04,374.67h-9.1l-1.61,4.18h-8.21l10.47-23.96h7.94L534,378.85h-8.35L524.04,374.67z M521.82,368.85
				l-2.33-6.02l-2.33,6.02H521.82z"/>
		</g>
		<polygon class="st1" points="632.16,103.13 594.72,103.13 594.72,222.4 594.72,222.4 632.16,222.4 669.59,222.4 669.59,222.4 
			669.59,103.13 		"/>
		<polygon class="st1" points="431.52,103.13 468.96,167.97 468.96,167.97 506.4,222.4 543.83,167.97 543.83,167.97 581.27,103.13 
			506.4,103.13 		"/>
		<polygon class="st1" points="164.17,103.11 126.73,167.96 164.17,222.4 239.05,222.4 201.61,167.96 239.05,103.11 		"/>
		<polygon class="st1" points="74.88,103.11 37.44,103.11 0,103.11 0,103.11 0,103.11 0,222.4 37.44,222.4 74.88,222.4 74.88,222.4 
			112.33,167.96 		"/>
		<polygon class="st1" points="243.78,159.1 262.11,170.77 262.11,170.77 280.44,182.44 280.44,182.44 335.42,217.46 372.08,194.12 
			372.08,194.12 427.06,159.1 335.42,0 		"/>
		<polygon class="st1" points="395.05,198.26 335.46,236.21 308.59,219.02 308.64,219.08 276.08,198.26 276.17,198.38 
			244.21,177.93 335.42,311.79 427.06,177.93 394.98,198.36 		"/>
		<g>
			<polygon class="st2" points="582.31,241.52 582.31,240.59 581.77,241.52 			"/>
		</g>
		<g>
			<rect x="335.21" y="270.71" class="st3" width="0" height="0"/>
			<g>
				<rect x="594.72" y="103.13" class="st4" width="37.44" height="119.27"/>
				<rect x="632.16" y="103.13" class="st5" width="37.44" height="119.27"/>
				<polygon class="st1" points="669.59,103.13 594.72,103.13 632.16,167.97 				"/>
				<polygon class="st6" points="594.72,222.4 669.59,222.4 632.16,167.97 				"/>
			</g>
			<polygon class="st7" points="581.77,241.52 582.31,241.52 582.31,240.59 			"/>
			<g>
				<polygon class="st4" points="468.96,167.97 506.4,103.13 431.52,103.13 				"/>
				<polygon class="st6" points="543.83,167.97 581.27,103.13 506.4,103.13 				"/>
				<polygon class="st1" points="506.4,103.13 468.96,167.97 543.83,167.97 				"/>
				<polygon class="st5" points="506.4,222.4 543.83,167.97 468.96,167.97 				"/>
			</g>
			<g>
				<polygon class="st1" points="201.61,167.96 239.05,103.11 164.17,103.11 				"/>
				<polygon class="st4" points="164.17,103.11 126.73,167.96 201.61,167.96 				"/>
				<polygon class="st6" points="164.17,222.4 201.61,167.96 126.73,167.96 				"/>
				<polygon class="st5" points="201.61,167.96 164.17,222.4 239.05,222.4 				"/>
			</g>
			<g>
				<rect x="0" y="103.11" class="st4" width="37.44" height="119.29"/>
				<polygon class="st1" points="37.44,167.96 74.88,103.11 0,103.11 				"/>
				<polygon class="st6" points="74.88,103.11 37.44,167.96 112.33,167.96 				"/>
				<polygon class="st5" points="74.88,222.4 112.33,167.96 37.44,167.96 				"/>
				<polygon class="st1" points="37.44,167.96 0,222.4 74.88,222.4 				"/>
			</g>
			<g>
				<polygon class="st4" points="243.78,159.1 335.42,217.46 335.42,0 				"/>
				<polygon class="st6" points="427.06,159.1 335.42,217.46 335.42,0 				"/>
				<polygon class="st8" points="262.11,170.77 335.42,217.46 335.42,43.49 				"/>
				<polygon class="st9" points="408.74,170.77 335.42,217.46 335.42,43.49 				"/>
				<polygon class="st10" points="280.44,182.44 335.42,217.46 335.42,86.99 				"/>
				<polygon class="st11" points="390.41,182.44 335.42,217.46 335.42,86.99 				"/>
				<polygon class="st12" points="298.76,194.12 335.42,217.46 335.42,130.48 				"/>
				<polygon class="st13" points="372.08,194.12 335.42,217.46 335.42,130.48 				"/>
				<path class="st12" d="M335.42,217.46"/>
				<polygon class="st6" points="427.06,177.93 335.42,311.79 335.42,236.29 				"/>
				<polygon class="st4" points="244.21,177.93 335.42,311.79 335.42,236.29 				"/>
				<polygon class="st9" points="395.05,198.26 335.43,285.35 335.43,236.23 				"/>
				<polygon class="st8" points="276.08,198.26 335.43,285.35 335.43,236.23 				"/>
				<polygon class="st11" points="362.46,219.02 335.46,258.45 335.46,236.21 				"/>
				<polygon class="st10" points="308.59,219.02 335.46,258.45 335.46,236.21 				"/>
				<polygon class="st14" points="335.42,217.46 347.95,195.72 322.9,195.72 				"/>
				<polygon class="st14" points="335.42,130.48 347.95,108.73 322.9,108.73 				"/>
				<polygon class="st14" points="347.95,152.22 360.47,130.48 335.42,130.48 				"/>
				<polygon class="st14" points="373,152.22 385.53,130.48 360.47,130.48 				"/>
				<polygon class="st14" points="360.47,173.97 373,152.22 347.95,152.22 				"/>
				<polygon class="st14" points="347.95,195.72 360.47,173.97 335.42,173.97 				"/>
				<polygon class="st14" points="322.9,195.72 335.42,173.97 310.37,173.97 				"/>
				<polygon class="st14" points="297.84,152.22 285.32,130.48 310.37,130.48 				"/>
				<polygon class="st14" points="310.37,173.97 297.84,152.22 322.9,152.22 				"/>
				<polygon class="st14" points="322.9,152.22 310.37,130.48 335.42,130.48 				"/>
				<polygon class="st14" points="347.95,108.73 360.47,86.99 335.42,86.99 				"/>
				<polygon class="st14" points="322.9,108.73 310.37,86.99 335.42,86.99 				"/>
			</g>
		</g>
	</g>
</g>
</svg>
