<?xml version="1.0" encoding="UTF-8" standalone="no"?>
<!DOCTYPE svg PUBLIC "-//W3C//DTD SVG 1.1//EN" "http://www.w3.org/Graphics/SVG/1.1/DTD/svg11.dtd">
<svg width="100%" height="100%" viewBox="0 0 319 319" version="1.1" xmlns="http://www.w3.org/2000/svg" xmlns:xlink="http://www.w3.org/1999/xlink" xml:space="preserve" xmlns:serif="http://www.serif.com/" style="fill-rule:evenodd;clip-rule:evenodd;stroke-linejoin:round;stroke-miterlimit:2;">
    <g transform="matrix(1.59847,0,0,1.59847,159.3,159.3)">
        <g transform="matrix(1,0,0,1,-107.5,-107.5)">
            <g transform="matrix(0.0313885,0,0,-0.0313885,14.0407,194.745)">
                <path d="M1910,4991C1621,4898 1312,4800 1223,4771L1060,4719L1060,3802C1060,3240 1064,2850 1070,2795C1115,2401 1280,2012 1538,1690C1580,1638 1652,1557 1699,1510C1779,1431 2968,400 2981,400C2987,400 4063,1326 4194,1443C4488,1709 4737,2121 4839,2511C4896,2732 4895,2714 4895,3759L4895,4724L4201,4942C3819,5062 3505,5158 3503,5156C3498,5152 3754,4654 3769,4638C3774,4632 3898,4592 4333,4455L4481,4409L4477,3617C4473,2750 4474,2774 4410,2554C4334,2292 4187,2044 3979,1827C3896,1741 2990,958 2978,962C2960,968 2081,1730 2005,1805C1782,2026 1610,2315 1540,2592C1486,2801 1487,2771 1483,3617L1479,4408L1527,4423C1831,4514 2168,4626 2182,4642C2191,4652 2242,4745 2296,4848C2349,4951 2408,5063 2427,5098C2450,5138 2457,5160 2448,5159C2441,5159 2199,5083 1910,4991Z" style="fill:rgb(255,76,47);fill-rule:nonzero;"/>
                <path d="M2401,4082L1837,3005L1849,2906C1865,2780 1900,2659 1955,2542C2000,2447 2085,2310 2099,2310C2104,2310 2302,2683 2541,3139C2860,3750 2978,3965 2985,3956C2991,3948 3191,3577 3430,3131C3669,2685 3867,2320 3871,2320C3875,2320 3902,2357 3931,2403C4036,2565 4106,2772 4116,2945L4121,3035L3551,4095C3238,4677 2978,5155 2973,5157C2969,5158 2711,4675 2401,4082Z" style="fill:rgb(255,76,47);fill-rule:nonzero;"/>
                <path d="M2693,2578C2540,2274 2414,2021 2413,2015C2411,2004 2545,1886 2818,1657L2982,1520L3043,1572C3077,1601 3202,1710 3320,1814C3438,1918 3537,2005 3540,2007C3546,2013 2987,3130 2978,3130C2973,3130 2845,2881 2693,2578Z" style="fill:rgb(255,76,47);fill-rule:nonzero;"/>
            </g>
        </g>
    </g>
</svg>
