<?xml version="1.0" encoding="UTF-8" standalone="no"?>
<!DOCTYPE svg PUBLIC "-//W3C//DTD SVG 1.1//EN" "http://www.w3.org/Graphics/SVG/1.1/DTD/svg11.dtd">
<svg width="100%" height="100%" viewBox="0 0 319 319" version="1.1" xmlns="http://www.w3.org/2000/svg" xmlns:xlink="http://www.w3.org/1999/xlink" xml:space="preserve" xmlns:serif="http://www.serif.com/" style="fill-rule:evenodd;clip-rule:evenodd;stroke-linejoin:round;stroke-miterlimit:2;"><g transform="matrix(1.8657,0,0,1.8657,159.3,159.3)"><g transform="matrix(1,0,0,1,-107.5,-107.5)"><g transform="matrix(0.509593,0,0,0.509593,64.4687,40.2626)"><path d="M22.421,227.251C22.421,227.251 42.534,256.085 82.385,256.833C82.385,256.833 118.368,260.577 147.443,227.458C107.324,185.991 65.722,184.009 22.421,227.251Z" style="fill:rgb(82,155,186);"/><path d="M20.875,139.866L3.062,147.966L84.928,196.177C84.928,196.177 76.315,258.808 33.458,237.934C33.458,237.934 -8.655,209.535 3.062,147.966" style="fill:rgb(109,178,216);"/><g transform="matrix(-1,0,0,1,169.931,0)"><path d="M20.875,139.866L3.062,147.966L84.928,196.177C84.928,196.177 76.315,258.808 33.458,237.934C33.458,237.934 -8.655,209.535 3.062,147.966" style="fill:rgb(75,107,154);"/></g><path d="M6.322,130.662L84.765,1.012L84.854,96.05L6.322,130.662Z" style="fill:rgb(109,178,216);"/><g transform="matrix(1,0,0,1,-1,0)"><path d="M7.218,130.602L85.839,177.824L85.813,95.435L7.218,130.602Z" style="fill:rgb(62,85,120);"/></g><g transform="matrix(-1,0,0,1,169.314,0.108375)"><path d="M6.322,130.662L84.765,1.012L84.854,96.05L6.322,130.662Z" style="fill:rgb(75,107,154);"/></g><g transform="matrix(-1,0,0,1,170.314,0.108375)"><path d="M7.218,130.602L85.608,177.9L85.813,95.435L7.218,130.602Z" style="fill:rgb(29,66,89);"/></g><path d="M148.16,139.596L166.888,147.96L85.017,196.225L3.032,148.034L22.326,140.272L84.641,176.976L148.16,139.596Z" style="fill:rgb(19,52,68);"/></g></g></g></svg>
