<?xml version="1.0" encoding="UTF-8" standalone="no"?>
<!DOCTYPE svg PUBLIC "-//W3C//DTD SVG 1.1//EN" "http://www.w3.org/Graphics/SVG/1.1/DTD/svg11.dtd"><svg width="100%" height="100%" viewBox="0 0 319 319" version="1.1" xmlns="http://www.w3.org/2000/svg" xmlns:xlink="http://www.w3.org/1999/xlink" xml:space="preserve" xmlns:serif="http://www.serif.com/" style="fill-rule:evenodd;clip-rule:evenodd;stroke-linejoin:round;stroke-miterlimit:2;"><g transform="matrix(1.7268,0,0,1.7268,159.3,155.744)"><g transform="matrix(1,0,0,1,-107.5,-107.5)"><path d="M55.953,84.792L72.263,100.335C72.263,100.335 84.86,78.281 106.774,78.436C106.774,78.436 126.648,75.152 143.824,101.06L160.354,85.616C160.354,85.616 143.436,59.639 107.409,59.615C107.409,59.615 79.188,56.141 55.953,84.792Z" style="fill:rgb(59,153,252);"/><path d="M42.568,93.225L25.838,109.259L74.827,157.509L107.434,125.302L141.274,157.461L188.677,109.672L172.91,93.916L141.771,126.195L107.369,93.403L74.398,126.501L42.568,93.225Z" style="fill:rgb(59,153,252);"/></g></g></svg>
