<?xml version="1.0" encoding="UTF-8" standalone="no"?><!DOCTYPE svg PUBLIC "-//W3C//DTD SVG 1.1//EN" "http://www.w3.org/Graphics/SVG/1.1/DTD/svg11.dtd"><svg width="100%" height="100%" viewBox="0 0 1552 778" version="1.1" xmlns="http://www.w3.org/2000/svg" xmlns:xlink="http://www.w3.org/1999/xlink" xml:space="preserve" xmlns:serif="http://www.serif.com/" style="fill-rule:evenodd;clip-rule:evenodd;stroke-linecap:round;stroke-linejoin:round;stroke-miterlimit:1.5;"><rect x="-11.42" y="-9.577" width="1575.96" height="796.962" style="fill:#161325;stroke:#359dbb;stroke-width:0.5px;"/><g><rect x="516.046" y="204.685" width="226.095" height="314.234" style="fill:#161325;stroke:#fff;stroke-width:0.5px;"/><rect x="777.546" y="204.685" width="284.631" height="314.234" style="fill:#161325;stroke:#fff;stroke-width:0.5px;"/><rect x="547.069" y="331.168" width="166.825" height="51.682" style="fill:#272636;stroke:#fff;stroke-width:0.5px;"/><rect x="547.069" y="421.168" width="166.825" height="70.137" style="fill:#272636;stroke:#fff;stroke-width:0.5px;"/><text x="569.626px" y="450.482px" style="font-family:'Avenir-Book', 'Avenir';font-size:16px;fill:#fff;">Of<tspan x="587.418px 592.154px " y="450.482px 450.482px ">f </tspan>Chain T<tspan x="649.658px 659.146px " y="450.482px 450.482px ">ok</tspan>ens</text><text x="567.626px" y="362.482px" style="font-family:'Avenir-Book', 'Avenir';font-size:16px;fill:#fff;">T<tspan x="575.034px 584.522px " y="362.482px 362.482px ">ok</tspan>en Negotiator</text><rect x="547.069" y="231.697" width="166.825" height="63.653" style="fill:#272636;stroke:#fff;stroke-width:0.5px;"/><text x="571.126px" y="254.482px" style="font-family:'Avenir-Book', 'Avenir';font-size:16px;fill:#fff;">On Chain T<tspan x="650.87px 660.358px " y="254.482px 254.482px ">ok</tspan>ens</text><rect x="834.569" y="243.168" width="166.825" height="51.682" style="fill:#272636;stroke:#fff;stroke-width:0.5px;"/><text x="890.126px" y="273.982px" style="font-family:'Avenir-Book', 'Avenir';font-size:16px;fill:#fff;">W<tspan x="904.942px 913.838px " y="273.982px 273.982px ">eb</tspan>site</text><rect x="834.569" y="455.369" width="166.825" height="31.981" style="fill:#272636;stroke:#fff;stroke-width:0.5px;"/><rect x="834.569" y="423.369" width="166.825" height="31.981" style="fill:#272636;stroke:#fff;stroke-width:0.5px;"/><rect x="834.569" y="390.869" width="166.825" height="31.981" style="fill:#272636;stroke:#fff;stroke-width:0.5px;"/><text x="853.626px" y="411.482px" style="font-family:'Avenir-Book', 'Avenir';font-size:16px;fill:#fff;">On Chain T<tspan x="933.37px 942.858px " y="411.482px 411.482px ">ok</tspan>en A</text><text x="853.626px" y="444.982px" style="font-family:'Avenir-Book', 'Avenir';font-size:16px;fill:#fff;">Of<tspan x="871.418px 876.154px " y="444.982px 444.982px ">f </tspan>Chain T<tspan x="933.658px 943.146px " y="444.982px 444.982px ">ok</tspan>en B</text><text x="853.626px" y="477.482px" style="font-family:'Avenir-Book', 'Avenir';font-size:16px;fill:#fff;">On Chain T<tspan x="933.37px 942.858px " y="477.482px 477.482px ">ok</tspan>en C</text><path d="M631.058,295.522l-0,34.386" style="fill:none;stroke:#fff;stroke-width:0.5px;"/><path d="M631.482,420.949l-0,-37.222" style="fill:none;stroke:#fff;stroke-width:0.5px;"/><rect x="187.05" y="79.575" width="226.095" height="127.968" style="fill:#161325;stroke:#fff;stroke-width:0.5px;"/><rect x="1097.67" y="203.748" width="267.279" height="305.656" style="fill:#161325;stroke:#fff;stroke-width:0.5px;"/><rect x="1097.67" y="243.979" width="267.279" height="274.303" style="fill:#161325;stroke:#fff;stroke-width:0.5px;"/><rect x="187.05" y="474.575" width="226.095" height="237.624" style="fill:#161325;stroke:#fff;stroke-width:0.5px;"/><rect x="187.05" y="509.523" width="226.095" height="202.676" style="fill:#161325;stroke:#fff;stroke-width:0.5px;"/><rect x="217.573" y="116.058" width="166.825" height="51.682" style="fill:#272636;stroke:#fff;stroke-width:0.5px;"/><text x="261.63px" y="146.873px" style="font-family:'Avenir-Book', 'Avenir';font-size:16px;fill:#fff;">Blockchain</text><g transform="matrix(0.5,0,0,0.5,1017.97,234.764)"><text x="213.411px" y="94.282px" style="font-family:'Avenir-Book', 'Avenir';font-size:40px;fill:#fff;">Client API</text><text x="213.411px" y="174.282px" style="font-family:'Avenir-Book', 'Avenir';font-size:40px;fill:#fff;">negotiator<tspan x="396.291px 407.411px " y="174.282px 174.282px ">.n</tspan>egotiate({</text><text x="257.891px" y="214.282px" style="font-family:'Avenir-Book', 'Avenir';font-size:40px;fill:#fff;">type: &quot;active&quot;</text><text x="257.891px" y="254.282px" style="font-family:'Avenir-Book', 'Avenir';font-size:40px;fill:#fff;">issuers: [</text><text x="291.251px" y="294.282px" style="font-family:'Avenir-Book', 'Avenir';font-size:40px;fill:#fff;">&quot;Kitties&quot;,</text><text x="291.251px" y="334.282px" style="font-family:'Avenir-Book', 'Avenir';font-size:40px;fill:#fff;">&quot;Punks&quot;,</text><text x="291.251px" y="374.282px" style="font-family:'Avenir-Book', 'Avenir';font-size:40px;fill:#fff;">&quot;DevCon&quot;,</text><text x="291.251px" y="414.282px" style="font-family:'Avenir-Book', 'Avenir';font-size:40px;fill:#fff;">&quot;W<tspan x="349.051px 371.291px 408.331px 432.051px " y="414.282px 414.282px 414.282px 414.282px ">eWor</tspan>k&quot;</text><text x="257.891px" y="454.282px" style="font-family:'Avenir-Book', 'Avenir';font-size:40px;fill:#fff;">]</text><text x="213.411px" y="494.282px" style="font-family:'Avenir-Book', 'Avenir';font-size:40px;fill:#fff;">});</text></g><rect x="342.341" y="328.555" width="143.694" height="51.682" style="fill:#272636;stroke:#fff;stroke-width:0.5px;"/><text x="376.638px" y="359.87px" style="font-family:'Avenir-Book', 'Avenir';font-size:16px;fill:#fff;">MetaMask</text><text x="1110.58px" y="229.068px" style="font-family:'Avenir-Book', 'Avenir';font-size:16px;fill:#fff;">Negotiator</text><path d="M1247.05,518.541l0,52.535l-327.936,0l0,-50.605" style="fill:none;stroke:#fff;stroke-width:0.5px;stroke-linecap:square;stroke-dasharray:0.5,0.5;"/><path d="M307.595,168.503l-0,102.358l82.888,-0" style="fill:none;stroke:#fff;stroke-width:0.5px;"/><rect x="297.98" y="533.945" width="99.956" height="51.682" style="fill:#272636;stroke:#fff;stroke-width:0.5px;"/><text x="312.429px" y="564.759px" style="font-family:'Avenir-Book', 'Avenir';font-size:16px;fill:#fff;">W<tspan x="327.245px 336.141px " y="564.759px 564.759px ">eb</tspan>site A</text><rect x="297.878" y="637.829" width="101.594" height="51.682" style="fill:#272636;stroke:#fff;stroke-width:0.5px;"/><text x="314.367px" y="668.644px" style="font-family:'Avenir-Book', 'Avenir';font-size:16px;fill:#fff;">W<tspan x="329.183px 338.079px " y="668.644px 668.644px ">eb</tspan>site C</text><rect x="198.88" y="585.812" width="98.861" height="51.682" style="fill:#272636;stroke:#fff;stroke-width:0.5px;"/><text x="209.623px" y="616.626px" style="font-family:'Avenir-Book', 'Avenir';font-size:16px;fill:#fff;">W<tspan x="224.439px 233.335px " y="616.626px 616.626px ">eb</tspan>site B</text><text x="258.623px" y="497.626px" style="font-family:'Avenir-Book', 'Avenir';font-size:16px;fill:#fff;">T<tspan x="266.031px 275.519px " y="497.626px 497.626px ">ok</tspan>en Issuers</text><path d="M299.334,473.778l0,-25.99l247.554,-0" style="fill:none;stroke:#fff;stroke-width:0.5px;"/><path d="M920.969,391.574l-0,-34.571l-206.874,-0" style="fill:none;stroke:#fff;stroke-width:0.5px;"/><path d="M547.513,270.057l-110.464,-0" style="fill:none;stroke:#fff;stroke-width:0.5px;"/><g><path d="M414.708,234.202l0,9.309" style="fill:none;stroke:#fff;stroke-width:0.5px;stroke-linecap:square;stroke-dasharray:0.5,0.5;"/><path d="M414.708,251.011l0,9.309" style="fill:none;stroke:#fff;stroke-width:0.5px;stroke-linecap:square;stroke-dasharray:0.5,0.5;"/><path d="M414.708,267.819l0,9.309" style="fill:none;stroke:#fff;stroke-width:0.5px;stroke-linecap:square;stroke-dasharray:0.5,0.5;"/><path d="M414.708,284.627l0,9.309" style="fill:none;stroke:#fff;stroke-width:0.5px;stroke-linecap:square;stroke-dasharray:0.5,0.5;"/><path d="M414.708,301.436l0,9.309" style="fill:none;stroke:#fff;stroke-width:0.5px;stroke-linecap:square;stroke-dasharray:0.5,0.5;"/></g><path d="M414.708,318.244l0,9.309" style="fill:none;stroke:#fff;stroke-width:0.5px;stroke-linecap:square;stroke-dasharray:0.5,0.5;"/><text x="572.815px" y="282.069px" style="font-family:'Avenir-Book', 'Avenir';font-size:16px;fill:#fff;stroke:#000;stroke-width:0.5px;stroke-linecap:butt;stroke-miterlimit:2;">Spend: On Chain</text><text x="555.815px" y="476.569px" style="font-family:'Avenir-Book', 'Avenir';font-size:16px;fill:#fff;stroke:#000;stroke-width:0.5px;stroke-linecap:butt;stroke-miterlimit:2;">Spend: Attestation.id</text></g><g><rect x="1145.61" y="659.967" width="379.133" height="92.146" style="fill:#161325;stroke:#fff;stroke-width:0.5px;"/><rect x="1384.12" y="718.195" width="131.484" height="25.206" style="fill:#272636;stroke:#fff;stroke-width:0.5px;"/><rect x="1384.12" y="668.147" width="131.484" height="25.206" style="fill:#272636;stroke:#fff;stroke-width:0.5px;"/><rect x="1384.12" y="692.974" width="131.484" height="25.206" style="fill:#272636;stroke:#fff;stroke-width:0.5px;"/><text x="1390.86px" y="684.394px" style="font-family:'Avenir-Book', 'Avenir';font-size:12.61px;fill:#fff;">Email</text><text x="1390.86px" y="710.797px" style="font-family:'Avenir-Book', 'Avenir';font-size:12.61px;fill:#fff;">Social</text><text x="1390.86px" y="735.624px" style="font-family:'Avenir-Book', 'Avenir';font-size:12.61px;fill:#fff;">Other types..</text><rect x="1155.27" y="684.686" width="131.484" height="40.734" style="fill:#272636;stroke:#fff;stroke-width:0.5px;"/><text x="1182.11px" y="708.972px" style="font-family:'Avenir-Book', 'Avenir';font-size:12.61px;fill:#fff;">Attestation.id</text><path d="M1286.75,704.961l49.356,0l0,-26.045l47.801,0" style="fill:none;stroke:#fff;stroke-width:0.5px;stroke-linecap:square;stroke-dasharray:0.5,0.5;"/><path d="M1333.36,704.871l50.87,0" style="fill:none;stroke:#fff;stroke-width:0.5px;stroke-linecap:square;stroke-dasharray:0.5,0.5;"/><path d="M1336.26,702.594l-0,27.817l47.657,0" style="fill:none;stroke:#fff;stroke-width:0.5px;stroke-linecap:square;stroke-dasharray:0.5,0.5;"/></g><g id="Layer1"></g><g id="Layer11" serif:id="Layer1"></g><g id="Layer12" serif:id="Layer1"></g><text x="1364.39px" y="40.915px" style="font-family:'Avenir-Book', 'Avenir';font-size:20px;fill:#fff;">T<tspan x="1373.65px 1385.51px " y="40.915px 40.915px ">ok</tspan>en Negotiator</text></svg>