<svg width="87" height="47" viewBox="0 0 87 47" xmlns="http://www.w3.org/2000/svg">
    <g fill="none" fill-rule="evenodd">
        <path d="M86.25 19.294a3.77 3.77 0 0 0-3.525 2.436 3.575 3.575 0 0 0-.21.89c-.024.14-.031.282-.026.425 0 2.07 1.685 3.75 3.761 3.75v15.25c0 2.21-1.795 4-4.012 4H4.012a3.925 3.925 0 0 1-2.884-1.25A3.896 3.896 0 0 1 0 42.045v-15.25a3.762 3.762 0 0 0 2.959-1.425c.43-.55.7-1.208.777-1.9.02-.14.03-.283.025-.425 0-2.07-1.685-3.75-3.761-3.75V4.044C0 2.448.938 1.07 2.294.43l.183-.08c.472-.198.99-.305 1.535-.305h78.226c.785.005 1.552.24 2.207.675.403.272.76.61 1.053 1 .496.673.76 1.49.752 2.325v15.25z" fill="#303052"/>
        <path fill="#FFF" d="m43.427 6.034 8.083 13.989-8.083 12.365-8.448-12.365z"/>
        <path fill="#1D63AE" fill-rule="nonzero" d="m36.388 19.43 1.388.883 1.387.882 4.162 2.65 2.775-1.766 4.161-2.65-6.936-12.034z"/>
        <path fill="#1D63AE" fill-rule="nonzero" d="m47.838 22.392-4.51 2.87-2.034-1.3.004.005-2.465-1.575.007.01-2.42-1.548 6.905 10.126 6.936-10.126-2.428 1.546z"/>
        <g fill-rule="nonzero">
            <path fill="#32A3D7" d="m36.388 19.43 6.937 4.414V7.394z"/>
            <path fill="#214391" d="m50.261 19.43-6.936 4.414V7.394z"/>
            <path fill="#E42327" d="m37.776 20.313 5.549 3.531v-13.16z"/>
            <path fill="#80151C" d="m48.874 20.313-5.55 3.531v-13.16z"/>
            <path fill="#FCCE0D" d="m39.163 21.195 4.162 2.65v-9.87z"/>
            <path fill="#F2B425" d="m47.487 21.195-4.162 2.65v-9.87z"/>
            <path fill="#F9EF60" d="m40.55 22.079 2.775 1.765v-6.58z"/>
            <path fill="#ECE11A" d="m46.1 22.079-2.775 1.765v-6.58z"/>
            <path fill="#214391" d="M50.261 20.854 43.325 30.98v-5.711z"/>
            <path fill="#32A3D7" d="m36.42 20.854 6.905 10.126v-5.711z"/>
            <path fill="#80151C" d="m47.838 22.392-4.513 6.588v-3.716z"/>
            <path fill="#E42327" d="m38.833 22.392 4.492 6.588v-3.716z"/>
            <path fill="#F2B425" d="m45.371 23.962-2.043 2.983v-1.682z"/>
            <path fill="#FCCE0D" d="m41.294 23.962 2.034 2.983v-1.682z"/>
            <path fill="#FFF" opacity=".75" d="m43.325 23.844.948-1.644h-1.896zM43.325 17.265l.948-1.645h-1.896zM44.273 18.91l.948-1.645h-1.896z"/>
            <path fill="#FFF" opacity=".75" d="m46.17 18.91.948-1.645H45.22z"/>
            <path fill="#FFF" opacity=".75" d="m45.22 20.555.95-1.646h-1.897zM44.273 22.2l.948-1.645h-1.896zM42.377 22.2l.948-1.645h-1.896zM40.48 18.91l-.948-1.645h1.897z"/>
            <path fill="#FFF" opacity=".75" d="m41.429 20.555-.949-1.646h1.897z"/>
            <path fill="#FFF" opacity=".75" d="m42.377 18.91-.948-1.645h1.896zM44.273 15.62l.948-1.645h-1.896zM42.377 15.62l-.948-1.645h1.896z"/>
        </g>
        <g fill="#FFF" fill-rule="nonzero">
            <path d="M28.878 36.47h1.585c1.21 0 2.032.763 2.032 1.881 0 1.118-.822 1.88-2.032 1.88h-1.585v-3.76zm1.553 3.294c.93 0 1.526-.57 1.526-1.413 0-.844-.596-1.413-1.526-1.413h-1.016v2.826h1.016zM37.122 39.764v.468h-2.73V36.47h2.654v.468H34.93v1.155h1.886v.457H34.93v1.214h2.193zM42.28 36.47l-1.65 3.762H40.1l-1.655-3.762h.58l1.354 3.09 1.365-3.09zM43.49 38.35c0-1.111.849-1.923 1.994-1.923.58 0 1.085.2 1.43.586l-.35.338a1.394 1.394 0 0 0-1.059-.446c-.849 0-1.478.613-1.478 1.446s.63 1.446 1.478 1.446c.414 0 .769-.146 1.059-.452l.35.339c-.345.386-.85.59-1.436.59-1.139 0-1.988-.81-1.988-1.923zM48.37 38.35c0-1.1.849-1.923 2.004-1.923 1.145 0 1.994.817 1.994 1.924s-.85 1.924-1.994 1.924c-1.155 0-2.004-.822-2.004-1.924zm3.46 0c0-.832-.623-1.445-1.456-1.445-.843 0-1.467.613-1.467 1.446s.624 1.446 1.467 1.446c.833 0 1.456-.613 1.456-1.446zM57.5 36.47v3.762h-.441l-2.257-2.805v2.805h-.537V36.47h.44l2.257 2.805V36.47z"/>
        </g>
    </g>
</svg>
